<svg width="1068" height="1026" viewBox="0 0 1068 1026" fill="none" xmlns="http://www.w3.org/2000/svg">
<path d="M700.4 0.376953C904.631 9.18052 1067.4 171.299 1067.4 370C1067.4 470.74 1025.56 562.077 957.692 628.798C1025.32 695.484 1067 786.658 1067 887.2C1067 935.981 1057.19 982.556 1039.36 1025.2H740.67C800.235 1007.17 843.6 951.851 843.6 886.4C843.6 809.003 782.96 745.771 706.6 741.619V741.4H0V517.2H0.400391V513.2H681.897C687.507 513.859 693.214 514.2 699 514.2C779.081 514.2 844 449.281 844 369.2C844 291.803 783.36 228.571 707 224.419V224.2H0.400391V0H700.4V0.376953Z" fill="#D10B20"/>
</svg>
