<?xml version="1.0" encoding="UTF-8"?>
<svg xmlns="http://www.w3.org/2000/svg" width="1746" height="403" viewBox="0 0 1746 403" role="img" aria-label="Editable world skyline vector silhouette">
  <!-- Vectorized from uploaded skyline image. ViewBox: 0 0 1746 403. Recolor by changing the fill value on the path with id skyline. -->
  <path id="skyline" fill="#D9D9D6" fill-rule="evenodd" d="
    M 7 237 L 4 244 L 0 247 L 0 270 L 3 270 L 4 271 L 3 272 L 4 274 L 3 275 L 0 275 L 0 278 L 32 278 L 26 276 L 23 272 L 19 269 L 20 266 L 18 264 L 18 261 L 17 260 L 17 256 L 18 255 L 16 254 L 17 253 L 17 249 L 15 249 L 13 245 L 10 244 L 9 240 Z
    M 3 280 L 3 281 L 6 281 L 7 282 L 12 282 L 10 280 L 9 282 L 7 280 Z
    M 3 286 L 4 288 L 3 289 L 5 290 L 6 287 L 7 289 L 10 289 L 8 288 L 8 286 Z
    M 11 271 L 12 270 L 15 271 L 14 272 Z
    M 14 283 L 14 285 L 18 288 L 17 289 L 13 289 L 19 289 L 20 287 L 18 286 L 19 283 L 18 283 L 17 286 L 16 283 Z
    M 33 275 L 36 275 L 37 278 L 40 277 L 39 273 L 34 273 Z
    M 86 109 L 76 112 L 68 116 L 66 118 L 65 144 L 62 145 L 62 149 L 61 150 L 61 159 L 62 160 L 61 163 L 62 166 L 61 169 L 61 173 L 62 174 L 61 176 L 61 179 L 62 180 L 61 190 L 62 191 L 61 192 L 61 195 L 59 197 L 59 220 L 57 222 L 57 247 L 56 248 L 56 263 L 55 264 L 55 275 L 56 276 L 55 278 L 56 279 L 56 291 L 58 289 L 60 291 L 66 291 L 67 292 L 65 295 L 61 295 L 62 297 L 64 297 L 66 295 L 67 292 L 68 293 L 69 292 L 71 293 L 77 292 L 78 293 L 77 297 L 76 298 L 73 297 L 73 298 L 82 297 L 80 296 L 82 294 L 88 294 L 90 291 L 96 291 L 98 293 L 98 295 L 99 294 L 97 292 L 98 287 L 97 286 L 97 277 L 96 276 L 96 235 L 95 234 L 96 233 L 96 230 L 95 229 L 95 207 L 94 206 L 94 195 L 92 192 L 92 144 L 90 144 L 88 142 L 88 120 L 87 119 L 87 112 Z
    M 55 295 L 56 298 L 59 297 L 59 296 Z
    M 60 285 L 61 284 L 62 285 L 61 286 Z
    M 65 288 L 66 287 L 68 288 L 67 289 Z
    M 72 282 L 73 281 L 77 281 L 78 282 L 76 283 L 75 285 Z
    M 91 299 L 89 300 L 77 300 L 77 301 L 91 301 Z
    M 80 282 L 81 281 L 84 282 L 83 283 Z
    M 125 202 L 125 205 L 120 211 L 120 215 L 118 218 L 117 233 L 114 242 L 115 245 L 114 246 L 115 248 L 115 251 L 114 252 L 114 275 L 115 276 L 114 277 L 115 279 L 117 278 L 120 280 L 119 282 L 116 282 L 116 284 L 118 287 L 126 287 L 127 288 L 125 289 L 133 289 L 135 291 L 140 291 L 141 290 L 141 281 L 138 285 L 133 285 L 130 282 L 131 281 L 138 280 L 137 239 L 136 238 L 136 227 L 134 225 L 134 217 L 132 214 L 132 210 L 128 206 L 127 202 Z
    M 130 288 L 131 287 L 138 287 L 139 288 L 138 289 L 131 289 Z
    M 170 295 L 169 292 L 167 291 L 168 289 L 164 286 L 157 290 L 154 289 L 152 292 L 153 293 L 152 295 L 153 297 L 156 297 L 158 294 L 164 294 L 165 295 L 163 296 L 164 297 Z
    M 154 295 L 155 294 L 156 295 L 155 296 Z
    M 191 27 L 190 74 L 188 76 L 189 78 L 189 115 L 187 117 L 187 120 L 179 127 L 178 133 L 177 134 L 179 142 L 183 146 L 186 147 L 188 150 L 187 151 L 188 152 L 188 159 L 187 160 L 186 202 L 185 203 L 185 233 L 184 234 L 184 240 L 183 241 L 182 254 L 181 255 L 181 278 L 181 273 L 184 272 L 185 270 L 187 270 L 188 271 L 188 275 L 190 274 L 190 269 L 192 267 L 194 271 L 193 272 L 194 273 L 194 277 L 193 278 L 200 279 L 202 281 L 203 279 L 203 272 L 202 271 L 202 253 L 201 252 L 201 246 L 200 245 L 201 244 L 199 239 L 199 232 L 198 231 L 198 186 L 197 185 L 196 149 L 204 142 L 206 134 L 205 133 L 204 127 L 201 123 L 197 120 L 196 117 L 194 115 L 194 78 L 195 76 L 193 74 L 192 27 Z
    M 187 278 L 186 281 L 187 281 L 188 284 L 189 284 L 190 281 L 189 279 Z
    M 187 279 L 188 278 L 189 279 L 188 280 Z
    M 192 255 L 193 256 L 193 266 L 192 267 L 191 266 L 191 258 L 190 257 Z
    M 191 248 L 192 247 L 193 248 L 192 249 Z
    M 193 281 L 193 283 L 195 285 L 197 285 L 200 283 L 200 282 L 197 282 L 195 280 Z
    M 240 222 L 235 229 L 235 230 L 238 232 L 238 235 L 237 236 L 237 245 L 236 246 L 237 248 L 236 249 L 236 254 L 234 256 L 233 284 L 240 284 L 241 285 L 239 287 L 236 287 L 235 289 L 233 286 L 232 290 L 233 293 L 235 292 L 239 292 L 241 295 L 245 295 L 246 296 L 246 299 L 246 295 L 244 295 L 242 293 L 245 292 L 246 289 L 243 289 L 242 288 L 243 285 L 245 286 L 245 280 L 244 279 L 245 278 L 245 269 L 244 268 L 245 257 L 243 255 L 243 251 L 242 250 L 242 237 L 241 236 L 241 232 L 243 231 L 244 229 L 242 227 Z
    M 235 279 L 236 278 L 239 279 L 238 280 Z
    M 237 253 L 237 251 L 239 249 L 242 251 L 240 254 Z
    M 239 240 L 241 242 L 242 245 L 240 248 L 238 247 L 238 241 Z
    M 287 148 L 286 149 L 286 153 L 287 154 L 287 164 L 283 168 L 283 188 L 278 191 L 276 191 L 276 196 L 280 196 L 281 197 L 281 225 L 279 229 L 280 231 L 280 235 L 281 236 L 280 238 L 280 243 L 281 244 L 280 247 L 280 264 L 276 268 L 273 268 L 273 270 L 275 274 L 275 279 L 275 276 L 276 275 L 280 275 L 281 276 L 279 277 L 279 284 L 279 279 L 282 278 L 283 275 L 284 277 L 285 277 L 286 275 L 289 277 L 290 275 L 295 276 L 296 277 L 294 279 L 293 282 L 287 282 L 290 283 L 291 286 L 290 287 L 295 287 L 296 288 L 295 289 L 289 289 L 288 286 L 279 286 L 279 287 L 283 289 L 295 289 L 298 287 L 301 287 L 301 284 L 303 282 L 306 285 L 306 287 L 306 283 L 305 282 L 306 280 L 305 277 L 305 279 L 302 280 L 300 275 L 303 272 L 306 272 L 307 269 L 306 272 L 305 269 L 304 269 L 303 272 L 300 273 L 296 273 L 295 272 L 298 270 L 301 270 L 299 268 L 300 267 L 304 267 L 302 267 L 300 265 L 300 257 L 299 256 L 300 254 L 300 231 L 301 228 L 298 224 L 298 195 L 299 194 L 303 194 L 306 192 L 306 188 L 304 185 L 304 182 L 303 181 L 304 177 L 303 177 L 302 180 L 300 182 L 296 183 L 293 180 L 288 171 L 288 161 L 289 160 L 289 157 L 291 155 L 291 151 Z
    M 281 253 L 281 251 L 283 249 L 286 251 L 284 254 Z
    M 282 198 L 284 197 L 285 199 L 284 200 Z
    M 283 233 L 286 234 L 286 237 L 284 239 L 282 238 L 282 234 Z
    M 282 245 L 283 244 L 284 245 L 283 246 Z
    M 282 256 L 283 255 L 284 257 L 283 258 Z
    M 282 261 L 283 260 L 285 262 L 283 263 Z
    M 282 288 L 283 287 L 285 288 L 284 289 Z
    M 283 202 L 284 201 L 285 202 L 284 203 Z
    M 283 208 L 284 207 L 285 209 L 284 210 Z
    M 283 214 L 285 213 L 286 215 L 284 216 Z
    M 283 221 L 284 220 L 286 223 L 284 224 Z
    M 288 224 L 289 223 L 292 224 L 291 225 Z
    M 289 197 L 290 196 L 291 198 L 290 199 Z
    M 289 214 L 290 213 L 291 215 L 290 216 Z
    M 290 283 L 292 282 L 293 284 L 291 285 Z
    M 292 245 L 293 244 L 295 245 L 294 246 Z
    M 294 208 L 296 207 L 297 209 L 295 210 Z
    M 296 220 L 297 221 L 296 224 L 294 222 Z
    M 296 215 L 297 216 L 296 219 L 295 218 Z
    M 297 233 L 299 234 L 299 237 L 298 238 L 295 236 Z
    M 299 241 L 300 242 L 300 245 L 298 249 L 300 251 L 300 254 L 297 255 L 298 256 L 296 257 L 295 256 L 295 253 L 296 252 L 295 251 L 295 247 L 296 246 L 295 242 L 296 241 Z
    M 296 259 L 299 258 L 300 259 L 300 262 L 297 263 L 296 262 Z
    M 297 239 L 298 238 L 299 239 L 298 240 Z
    M 298 238 L 299 237 L 300 238 L 299 239 Z
    M 299 184 L 301 183 L 303 186 L 300 187 Z
    M 344 249 L 344 250 L 340 253 L 340 255 L 336 258 L 335 260 L 337 263 L 337 274 L 336 275 L 336 282 L 335 285 L 337 282 L 338 285 L 344 285 L 346 284 L 347 282 L 350 281 L 350 262 L 352 259 L 348 257 L 348 255 Z
    M 390 280 L 389 281 L 387 280 L 387 281 L 389 282 L 387 283 L 387 284 L 390 282 Z
    M 396 91 L 394 92 L 392 96 L 390 97 L 391 100 L 389 102 L 389 105 L 391 106 L 393 109 L 393 113 L 392 114 L 394 116 L 395 128 L 398 136 L 394 143 L 395 144 L 394 151 L 395 153 L 398 155 L 397 161 L 400 166 L 404 157 L 404 154 L 402 157 L 400 156 L 404 146 L 406 150 L 405 152 L 408 154 L 408 157 L 410 160 L 413 160 L 414 162 L 420 154 L 416 154 L 412 156 L 408 147 L 411 146 L 415 150 L 419 150 L 426 156 L 425 167 L 422 171 L 422 174 L 425 174 L 428 179 L 431 176 L 432 168 L 430 166 L 430 164 L 428 161 L 427 155 L 421 151 L 421 138 L 425 136 L 425 135 L 422 136 L 419 132 L 421 128 L 418 131 L 415 130 L 415 127 L 415 129 L 413 131 L 411 131 L 409 129 L 409 133 L 408 134 L 407 133 L 405 134 L 408 137 L 408 140 L 406 143 L 404 142 L 403 134 L 401 130 L 400 134 L 398 136 L 397 135 L 397 128 L 400 123 L 399 114 L 398 113 L 398 107 L 401 105 L 401 101 L 398 100 L 399 93 Z
    M 441 247 L 440 245 L 436 245 L 434 242 L 434 238 L 433 239 L 433 242 L 431 244 L 421 244 L 420 245 L 399 244 L 397 242 L 398 240 L 396 239 L 397 242 L 394 245 L 391 245 L 390 246 L 390 252 L 392 254 L 392 264 L 393 265 L 393 269 L 394 268 L 395 269 L 397 268 L 399 270 L 401 270 L 401 267 L 400 266 L 401 263 L 401 254 L 403 253 L 404 254 L 404 257 L 403 258 L 404 259 L 404 268 L 403 269 L 406 269 L 407 270 L 410 269 L 415 269 L 416 270 L 418 269 L 419 270 L 421 269 L 422 270 L 428 270 L 430 273 L 430 275 L 433 275 L 431 274 L 432 272 L 438 272 L 438 254 L 441 251 L 440 249 Z
    M 392 249 L 393 248 L 397 248 L 398 249 L 397 250 L 393 250 Z
    M 401 137 L 403 141 L 400 145 L 397 146 L 396 145 L 397 142 Z
    M 396 245 L 397 244 L 398 245 L 397 246 Z
    M 413 164 L 407 165 L 398 172 L 397 179 L 400 182 L 400 179 L 403 172 L 408 166 Z
    M 397 248 L 398 247 L 401 248 L 400 249 Z
    M 408 174 L 407 177 L 399 188 L 399 196 L 400 199 L 401 199 L 400 198 L 400 194 L 403 188 L 403 186 L 407 180 Z
    M 414 190 L 412 192 L 411 195 L 405 201 L 400 203 L 401 208 L 399 211 L 399 215 L 401 221 L 401 233 L 399 235 L 411 235 L 411 227 L 411 229 L 409 231 L 408 230 L 408 226 L 406 228 L 406 232 L 405 233 L 404 232 L 404 225 L 406 221 L 406 214 L 408 209 L 409 201 L 413 195 Z
    M 401 248 L 403 246 L 404 247 L 403 249 Z
    M 402 281 L 407 281 L 409 280 L 408 279 L 404 279 Z
    M 406 205 L 407 208 L 405 210 L 403 208 L 404 206 Z
    M 404 249 L 405 248 L 406 249 L 405 250 Z
    M 407 247 L 411 245 L 413 246 L 414 245 L 415 246 L 417 245 L 418 247 L 420 246 L 423 248 L 422 249 L 417 249 L 416 248 L 409 249 Z
    M 407 249 L 408 248 L 409 249 L 408 250 Z
    M 411 155 L 412 156 L 412 159 L 411 160 L 409 158 Z
    M 411 140 L 413 138 L 415 138 L 417 141 L 414 144 Z
    M 432 203 L 431 205 L 428 205 L 428 207 L 426 209 L 422 211 L 419 211 L 416 213 L 417 216 L 415 219 L 411 222 L 413 225 L 413 228 L 414 229 L 414 235 L 423 235 L 421 234 L 421 217 L 423 215 L 424 216 L 424 219 L 424 215 L 427 213 L 428 214 L 432 214 L 433 212 L 433 208 L 432 207 L 433 205 Z
    M 413 254 L 415 256 L 415 258 L 416 257 L 417 258 L 415 261 L 415 266 L 414 267 L 411 265 L 411 257 Z
    M 413 134 L 414 133 L 417 134 L 416 135 Z
    M 413 254 L 414 253 L 415 254 L 414 255 Z
    M 418 188 L 417 191 L 417 210 L 418 207 Z
    M 423 254 L 425 255 L 425 267 L 424 268 L 422 267 L 422 258 L 421 257 Z
    M 423 249 L 424 248 L 429 248 L 430 249 L 429 250 L 424 250 Z
    M 426 159 L 428 160 L 428 164 L 427 165 L 425 162 Z
    M 431 216 L 430 217 L 428 216 L 428 221 L 429 222 L 429 227 L 430 229 L 429 231 L 427 232 L 425 230 L 425 227 L 425 235 L 431 235 L 430 232 Z
    M 427 253 L 429 255 L 429 265 L 428 266 L 426 265 L 426 262 L 425 261 L 425 256 Z
    M 428 164 L 429 165 L 429 170 L 428 171 L 427 170 L 427 165 Z
    M 428 280 L 428 281 L 434 281 L 434 280 L 431 281 Z
    M 438 161 L 436 163 L 439 164 L 438 166 L 439 167 L 439 171 L 435 176 L 434 180 L 431 182 L 429 182 L 429 185 L 431 190 L 436 186 L 436 179 L 442 175 L 442 171 L 443 170 L 441 167 L 443 166 L 443 164 L 440 163 Z
    M 443 280 L 442 278 L 441 280 L 438 279 L 441 281 L 440 283 L 432 283 L 433 284 L 437 284 L 438 285 L 441 284 L 442 285 L 442 281 Z
    M 434 249 L 435 248 L 437 249 L 436 250 Z
    M 511 84 L 510 85 L 509 108 L 506 114 L 505 119 L 502 123 L 503 124 L 503 133 L 504 134 L 502 136 L 502 138 L 500 140 L 498 145 L 495 148 L 495 154 L 496 155 L 496 159 L 499 159 L 500 160 L 518 160 L 519 159 L 522 160 L 522 159 L 524 158 L 525 161 L 524 162 L 492 162 L 491 163 L 491 195 L 493 198 L 493 284 L 494 285 L 493 288 L 494 289 L 494 292 L 494 290 L 497 287 L 501 287 L 504 289 L 500 292 L 509 291 L 509 289 L 505 289 L 502 286 L 503 283 L 505 282 L 506 284 L 509 285 L 509 287 L 509 282 L 508 283 L 503 281 L 505 278 L 506 279 L 510 279 L 512 282 L 518 282 L 523 280 L 524 281 L 524 289 L 525 289 L 525 279 L 526 278 L 525 275 L 526 273 L 525 270 L 525 264 L 526 263 L 526 198 L 529 196 L 529 189 L 530 188 L 530 163 L 526 161 L 526 157 L 525 156 L 523 158 L 522 157 L 522 155 L 526 152 L 526 148 L 523 146 L 518 136 L 518 128 L 517 127 L 518 126 L 518 121 L 516 119 L 514 111 L 512 108 Z
    M 492 195 L 493 193 L 497 193 L 498 194 L 494 196 Z
    M 528 194 L 526 196 L 499 195 L 498 194 L 499 193 L 522 193 L 523 192 Z
    M 513 166 L 520 172 L 521 176 L 517 184 L 511 187 L 508 187 L 501 181 L 500 176 L 501 173 L 505 168 L 510 166 Z
    M 508 126 L 509 127 L 507 130 L 505 131 L 504 130 L 505 127 Z
    M 504 134 L 506 132 L 508 134 L 507 135 Z
    M 507 176 L 509 179 L 513 178 L 512 176 L 511 178 L 509 177 L 509 175 Z
    M 510 126 L 512 127 L 512 130 L 511 131 L 509 127 Z
    M 517 134 L 516 135 L 510 135 L 509 134 L 515 132 Z
    M 509 170 L 509 173 L 511 173 L 511 170 Z
    M 512 127 L 515 126 L 517 128 L 517 130 L 516 131 L 514 128 Z
    M 515 154 L 516 153 L 520 153 L 521 154 L 520 155 L 516 155 Z
    M 517 156 L 518 155 L 520 157 L 518 158 Z
    M 523 191 L 524 190 L 526 191 L 525 192 Z
    M 704 301 L 698 298 L 699 274 L 697 269 L 692 273 L 686 274 L 679 264 L 678 253 L 677 264 L 670 273 L 664 272 L 660 275 L 658 273 L 656 248 L 652 258 L 648 256 L 644 260 L 641 258 L 641 219 L 640 226 L 638 227 L 632 217 L 626 228 L 624 227 L 623 220 L 623 257 L 621 259 L 617 257 L 615 245 L 613 245 L 614 251 L 610 262 L 605 266 L 601 266 L 595 258 L 593 260 L 589 259 L 585 265 L 576 266 L 576 254 L 570 253 L 569 257 L 566 258 L 564 256 L 566 225 L 564 224 L 564 228 L 562 229 L 557 219 L 550 229 L 547 223 L 548 258 L 544 259 L 542 256 L 539 260 L 535 253 L 529 260 L 530 270 L 537 271 L 536 273 L 529 272 L 529 275 L 534 275 L 537 278 L 537 294 L 539 288 L 537 285 L 540 279 L 546 281 L 548 289 L 547 282 L 551 280 L 552 284 L 553 277 L 556 276 L 559 279 L 557 282 L 560 285 L 558 286 L 559 290 L 557 292 L 546 292 L 547 295 L 548 293 L 552 295 L 556 292 L 559 294 L 559 298 L 561 293 L 571 293 L 564 289 L 563 291 L 561 290 L 561 278 L 568 276 L 570 281 L 574 280 L 576 284 L 577 278 L 581 276 L 584 279 L 584 285 L 580 286 L 585 289 L 583 292 L 584 297 L 586 279 L 588 279 L 590 289 L 590 275 L 597 272 L 600 282 L 597 284 L 600 290 L 602 287 L 604 288 L 606 294 L 608 293 L 606 290 L 608 286 L 607 278 L 610 276 L 616 282 L 615 285 L 611 285 L 613 287 L 618 286 L 617 281 L 620 275 L 623 279 L 623 284 L 623 281 L 627 277 L 629 278 L 631 285 L 630 292 L 634 291 L 636 285 L 634 279 L 642 277 L 642 293 L 640 294 L 643 301 L 643 281 L 645 279 L 647 282 L 650 276 L 654 279 L 653 284 L 648 284 L 647 286 L 648 293 L 653 293 L 654 296 L 655 293 L 658 293 L 659 276 L 662 277 L 663 281 L 665 279 L 667 281 L 663 277 L 664 274 L 666 276 L 672 275 L 677 281 L 681 280 L 683 284 L 681 286 L 674 286 L 672 283 L 674 280 L 672 280 L 670 286 L 662 283 L 663 294 L 669 292 L 678 295 L 679 293 L 675 293 L 672 289 L 675 286 L 683 288 L 685 285 L 683 281 L 687 278 L 690 281 L 689 278 L 693 276 L 696 284 L 694 287 L 697 284 L 698 287 L 697 291 L 692 293 L 695 293 L 697 298 L 694 301 L 683 298 L 677 302 L 688 301 L 694 304 L 695 302 Z
    M 529 283 L 529 290 L 529 287 L 531 285 Z
    M 539 270 L 543 268 L 545 269 L 546 271 L 545 272 L 540 272 Z
    M 546 299 L 546 302 L 547 303 L 546 304 L 546 307 L 546 305 L 548 303 L 546 302 L 547 301 Z
    M 547 266 L 549 264 L 552 266 L 552 268 L 550 269 L 548 268 Z
    M 551 248 L 554 249 L 554 255 L 555 257 L 553 261 L 551 261 L 549 259 L 550 256 L 552 254 L 550 251 Z
    M 549 262 L 550 261 L 551 262 L 550 263 Z
    M 550 242 L 553 241 L 554 243 L 552 245 Z
    M 550 305 L 552 306 L 553 305 L 552 303 L 553 302 L 560 301 L 559 300 L 557 301 L 552 300 Z
    M 552 262 L 553 261 L 555 262 L 554 263 Z
    M 552 265 L 553 264 L 554 265 L 553 266 Z
    M 552 269 L 554 268 L 555 270 L 553 271 Z
    M 554 265 L 557 263 L 559 265 L 559 267 L 558 268 L 555 268 Z
    M 560 254 L 564 257 L 562 263 L 560 262 L 558 256 Z
    M 559 242 L 562 241 L 563 244 L 560 245 Z
    M 562 248 L 563 251 L 560 253 L 559 250 Z
    M 560 265 L 563 263 L 564 264 L 564 267 L 565 267 L 566 269 L 565 265 L 567 263 L 569 263 L 570 264 L 570 267 L 568 268 L 571 268 L 573 266 L 575 268 L 574 269 L 575 272 L 572 273 L 570 271 L 569 272 L 562 271 L 561 269 L 559 268 Z
    M 566 300 L 566 302 L 564 303 L 566 305 L 568 305 L 566 303 Z
    M 573 241 L 572 249 L 575 249 L 575 247 L 573 244 Z
    M 574 301 L 575 304 L 576 304 L 577 302 L 579 302 L 580 303 L 579 304 L 580 306 L 584 305 L 586 308 L 588 309 L 588 305 L 589 304 L 588 302 L 586 301 L 585 302 L 583 300 L 582 301 L 581 300 L 577 300 L 576 302 Z
    M 578 271 L 579 270 L 580 271 L 579 272 Z
    M 580 271 L 581 270 L 584 270 L 585 271 L 584 272 L 581 272 Z
    M 594 299 L 595 303 L 596 304 L 599 303 L 600 306 L 600 302 L 601 301 L 604 302 L 607 305 L 605 306 L 608 304 L 612 303 L 611 300 L 612 299 L 611 300 L 607 300 L 606 299 L 604 300 L 601 299 L 600 300 L 597 298 L 597 294 L 596 294 L 596 296 Z
    M 595 302 L 596 300 L 598 301 L 596 303 Z
    M 600 283 L 601 280 L 603 280 L 606 282 L 603 285 Z
    M 603 270 L 604 269 L 618 269 L 619 271 L 618 272 L 604 272 Z
    M 606 303 L 607 302 L 608 303 L 607 304 Z
    M 607 309 L 607 312 L 613 312 L 611 310 L 608 310 Z
    M 609 265 L 610 264 L 611 265 L 610 266 Z
    M 612 293 L 613 292 L 614 293 L 619 292 L 615 291 L 612 292 Z
    M 615 285 L 616 284 L 617 285 L 616 286 Z
    M 617 303 L 618 305 L 616 308 L 618 307 L 620 308 L 619 306 L 620 303 Z
    M 621 260 L 624 262 L 624 265 L 622 267 L 620 266 L 620 261 Z
    M 624 248 L 625 247 L 629 247 L 630 248 L 630 251 L 629 252 L 626 252 L 624 250 Z
    M 629 253 L 630 254 L 630 260 L 628 262 L 626 262 L 624 259 L 624 257 Z
    M 640 299 L 638 301 L 637 300 L 635 301 L 630 299 L 627 301 L 624 300 L 624 305 L 625 306 L 624 309 L 625 309 L 626 307 L 629 308 L 625 305 L 627 302 L 628 305 L 630 304 L 633 304 L 634 302 L 640 301 Z
    M 625 241 L 628 240 L 629 241 L 629 244 L 626 245 L 625 244 Z
    M 626 264 L 630 264 L 631 265 L 630 266 L 630 271 L 629 272 L 627 272 L 625 270 L 625 267 L 626 266 L 625 265 Z
    M 630 234 L 632 232 L 634 233 L 633 236 Z
    M 635 240 L 639 240 L 641 242 L 637 245 L 637 246 L 640 248 L 640 251 L 639 252 L 636 252 L 634 250 L 635 247 L 634 245 L 634 241 Z
    M 636 252 L 637 253 L 638 252 L 640 253 L 639 254 L 639 258 L 640 260 L 638 262 L 634 260 L 635 257 L 634 254 Z
    M 637 265 L 640 268 L 640 271 L 636 273 L 634 271 L 634 268 Z
    M 638 276 L 639 275 L 640 276 L 639 277 Z
    M 640 272 L 641 271 L 642 272 L 641 273 Z
    M 642 268 L 643 267 L 645 268 L 650 268 L 651 270 L 650 271 L 647 270 L 647 271 L 644 273 L 642 271 Z
    M 643 276 L 644 275 L 645 276 L 644 277 Z
    M 645 300 L 647 301 L 648 303 L 650 302 L 651 304 L 655 307 L 656 306 L 656 303 L 653 303 L 648 299 Z
    M 646 264 L 649 262 L 651 265 L 648 267 Z
    M 647 287 L 648 286 L 652 286 L 654 288 L 654 290 L 652 292 L 649 292 L 647 290 Z
    M 660 300 L 660 301 L 665 303 L 668 301 L 670 301 L 671 302 L 670 304 L 672 304 L 673 302 L 675 301 L 672 300 L 667 302 L 666 301 L 662 301 Z
    M 663 288 L 664 287 L 667 288 L 670 287 L 671 288 L 671 291 L 670 292 L 665 292 L 663 290 Z
    M 671 312 L 691 312 L 692 311 L 700 312 L 701 309 L 694 309 L 693 308 L 694 306 L 693 307 L 689 306 L 687 309 L 686 308 L 686 305 L 687 304 L 685 306 L 681 306 L 679 304 L 677 306 L 673 307 L 672 308 L 675 308 L 676 309 L 674 312 Z
    M 674 276 L 675 275 L 676 277 L 675 278 Z
    M 676 278 L 677 277 L 678 278 L 677 279 Z
    M 676 310 L 678 309 L 679 311 L 677 312 Z
    M 677 279 L 678 278 L 679 279 L 678 280 Z
    M 677 308 L 678 307 L 680 308 L 679 309 Z
    M 689 310 L 690 309 L 691 310 L 690 311 Z
    M 690 309 L 691 308 L 692 309 L 691 310 Z
    M 696 299 L 697 298 L 698 299 L 697 300 Z
    M 702 201 L 702 207 L 708 207 L 710 211 L 709 201 L 710 194 L 712 191 L 717 191 L 718 194 L 718 192 L 720 191 L 716 191 L 712 188 L 714 179 L 717 177 L 716 175 L 718 173 L 721 174 L 719 170 L 722 167 L 725 167 L 723 164 L 727 162 L 727 159 L 734 152 L 738 155 L 738 157 L 735 160 L 732 158 L 734 161 L 731 164 L 729 163 L 730 165 L 745 153 L 742 151 L 741 147 L 742 145 L 746 143 L 749 146 L 748 142 L 754 140 L 755 141 L 754 142 L 756 143 L 755 141 L 756 139 L 759 139 L 761 141 L 762 146 L 764 144 L 770 144 L 769 143 L 763 144 L 761 139 L 765 136 L 767 140 L 769 140 L 769 138 L 767 137 L 772 135 L 774 137 L 773 144 L 775 151 L 775 145 L 778 143 L 776 142 L 775 137 L 776 136 L 782 136 L 783 137 L 781 138 L 782 140 L 784 136 L 788 137 L 789 139 L 787 146 L 790 138 L 794 140 L 799 140 L 810 146 L 814 150 L 809 156 L 816 163 L 818 163 L 821 159 L 817 163 L 815 159 L 810 156 L 814 151 L 816 151 L 829 164 L 825 168 L 829 167 L 832 170 L 831 172 L 832 175 L 830 178 L 833 176 L 836 179 L 836 182 L 833 183 L 833 186 L 836 185 L 838 189 L 832 191 L 830 189 L 831 187 L 830 186 L 830 191 L 832 193 L 839 191 L 841 203 L 838 204 L 840 204 L 842 208 L 848 207 L 848 202 L 847 201 L 843 202 L 842 197 L 840 195 L 841 192 L 845 190 L 846 186 L 844 183 L 840 184 L 836 177 L 840 172 L 840 170 L 837 167 L 833 170 L 829 164 L 829 162 L 832 159 L 832 156 L 830 154 L 827 154 L 824 157 L 821 153 L 821 151 L 824 148 L 821 145 L 816 149 L 814 148 L 812 145 L 815 140 L 814 138 L 811 137 L 807 143 L 802 140 L 804 133 L 798 132 L 794 137 L 792 135 L 793 130 L 789 128 L 786 134 L 779 134 L 778 133 L 779 127 L 777 125 L 776 114 L 774 114 L 774 124 L 772 126 L 773 131 L 772 134 L 762 135 L 761 134 L 762 130 L 760 128 L 757 128 L 755 130 L 757 135 L 755 137 L 749 139 L 747 134 L 745 133 L 743 134 L 741 137 L 744 141 L 743 143 L 737 147 L 732 143 L 729 144 L 728 148 L 732 151 L 726 157 L 723 154 L 720 154 L 718 156 L 721 162 L 720 166 L 716 167 L 714 165 L 711 168 L 711 171 L 715 174 L 713 182 L 711 184 L 706 183 L 704 186 L 705 189 L 711 192 L 709 194 L 709 200 Z
    M 705 219 L 704 222 L 706 224 L 711 223 L 714 229 L 714 231 L 709 235 L 710 238 L 712 240 L 715 238 L 717 238 L 721 244 L 722 244 L 722 241 L 720 239 L 720 238 L 722 237 L 722 235 L 719 237 L 717 235 L 718 233 L 722 230 L 723 230 L 724 232 L 724 229 L 722 228 L 721 230 L 716 231 L 715 230 L 716 228 L 714 227 L 713 224 L 713 221 L 719 217 L 718 218 L 715 218 L 714 217 L 712 218 L 709 217 Z
    M 715 183 L 715 185 L 720 186 Z
    M 775 189 L 772 191 L 770 191 L 766 194 L 763 200 L 763 206 L 769 214 L 769 218 L 766 224 L 761 241 L 757 249 L 752 264 L 750 266 L 747 266 L 745 264 L 742 263 L 735 257 L 735 255 L 737 252 L 734 256 L 732 256 L 730 252 L 725 248 L 725 246 L 723 246 L 718 249 L 718 251 L 721 254 L 726 250 L 732 256 L 732 257 L 728 260 L 729 263 L 731 263 L 734 259 L 736 259 L 739 262 L 739 263 L 735 266 L 737 269 L 740 269 L 742 266 L 741 265 L 742 264 L 744 264 L 749 267 L 748 276 L 745 282 L 744 287 L 745 287 L 747 281 L 748 280 L 749 281 L 752 278 L 752 276 L 756 269 L 760 270 L 762 272 L 761 276 L 763 278 L 765 278 L 766 277 L 765 274 L 767 272 L 762 271 L 756 268 L 758 264 L 758 258 L 760 255 L 760 252 L 762 249 L 763 243 L 769 230 L 769 227 L 772 222 L 774 225 L 773 228 L 773 235 L 774 236 L 773 262 L 776 266 L 775 267 L 774 266 L 772 272 L 769 272 L 772 272 L 774 277 L 774 281 L 773 282 L 774 303 L 774 302 L 776 301 L 776 296 L 777 295 L 777 283 L 776 282 L 777 280 L 777 273 L 778 272 L 781 272 L 778 272 L 777 271 L 777 267 L 776 266 L 777 263 L 776 239 L 777 238 L 777 224 L 778 223 L 781 227 L 781 230 L 785 237 L 785 240 L 786 241 L 788 240 L 789 241 L 789 244 L 790 244 L 790 242 L 788 239 L 785 230 L 785 227 L 782 222 L 782 217 L 781 216 L 781 213 L 784 212 L 784 210 L 786 208 L 787 205 L 786 202 L 787 200 L 785 195 L 782 192 L 778 191 Z
    M 738 148 L 739 148 L 742 152 L 741 155 L 739 155 L 736 152 L 736 150 Z
    M 775 197 L 779 200 L 779 205 L 776 207 L 774 207 L 770 203 L 770 201 Z
    M 774 271 L 775 270 L 776 271 L 775 272 Z
    M 774 278 L 775 277 L 776 278 L 775 279 Z
    M 774 299 L 775 298 L 776 299 L 775 300 Z
    M 775 272 L 776 271 L 777 272 L 776 273 Z
    M 786 273 L 785 274 L 785 277 L 786 278 L 789 278 L 791 275 L 789 273 L 788 274 Z
    M 841 210 L 841 213 L 839 218 L 833 218 L 831 217 L 838 223 L 836 226 L 835 225 L 833 226 L 833 227 L 836 229 L 836 231 L 835 232 L 832 232 L 831 231 L 828 231 L 827 229 L 826 229 L 826 232 L 829 231 L 833 235 L 831 237 L 828 236 L 829 240 L 826 244 L 823 242 L 823 243 L 825 244 L 825 246 L 817 255 L 816 255 L 815 252 L 813 251 L 816 255 L 809 262 L 803 265 L 800 265 L 799 262 L 795 259 L 795 256 L 793 254 L 792 248 L 791 247 L 789 248 L 788 246 L 789 252 L 793 262 L 793 265 L 795 268 L 794 269 L 791 269 L 789 270 L 789 271 L 793 269 L 796 272 L 799 278 L 799 282 L 801 285 L 802 290 L 805 295 L 806 301 L 807 301 L 806 298 L 810 295 L 808 294 L 809 289 L 806 284 L 806 281 L 803 276 L 803 272 L 801 268 L 804 265 L 806 265 L 808 262 L 811 261 L 816 257 L 818 258 L 816 260 L 818 263 L 822 262 L 822 259 L 817 257 L 820 255 L 823 251 L 827 254 L 829 254 L 832 252 L 832 250 L 830 248 L 828 248 L 827 245 L 829 244 L 830 241 L 833 238 L 837 241 L 839 240 L 840 235 L 836 232 L 837 227 L 840 222 L 843 224 L 845 224 L 847 221 L 846 219 L 843 218 L 841 216 Z
    M 806 148 L 804 151 L 802 151 L 805 152 L 806 154 L 807 154 L 805 151 Z
    M 807 143 L 808 142 L 809 143 L 808 144 Z
    M 813 264 L 809 265 L 808 268 L 809 269 L 813 269 L 815 267 Z
    M 835 183 L 836 182 L 837 184 L 836 185 Z
    M 867 253 L 867 255 L 863 261 L 863 264 L 862 265 L 863 270 L 860 274 L 860 280 L 857 282 L 855 282 L 855 299 L 856 298 L 877 298 L 878 299 L 883 299 L 883 296 L 873 295 L 872 294 L 873 292 L 875 292 L 868 292 L 866 289 L 866 287 L 864 289 L 858 289 L 861 289 L 862 291 L 860 292 L 862 293 L 860 296 L 858 294 L 858 292 L 855 291 L 859 284 L 866 285 L 868 282 L 872 282 L 873 281 L 874 275 L 871 276 L 869 274 L 869 269 L 871 268 L 870 265 L 871 264 L 871 261 L 869 259 Z
    M 866 292 L 867 291 L 868 292 L 867 293 Z
    M 868 288 L 870 289 L 877 289 L 875 288 L 875 287 L 877 286 L 879 287 L 880 289 L 883 289 L 884 287 L 883 286 L 869 286 Z
    M 871 302 L 876 301 L 876 300 L 872 300 Z
    M 892 250 L 892 268 L 894 269 L 894 273 L 895 272 L 894 271 L 895 270 L 895 251 Z
    M 911 218 L 910 229 L 907 235 L 907 240 L 904 244 L 905 245 L 904 246 L 905 247 L 905 278 L 906 279 L 906 285 L 905 287 L 906 289 L 906 277 L 908 275 L 911 276 L 910 277 L 911 279 L 910 281 L 913 278 L 915 279 L 914 280 L 915 283 L 917 282 L 919 279 L 921 279 L 922 280 L 921 282 L 922 285 L 921 288 L 922 288 L 923 286 L 921 283 L 923 282 L 924 280 L 927 282 L 926 284 L 928 285 L 933 285 L 934 286 L 932 288 L 934 289 L 934 280 L 937 277 L 939 279 L 938 280 L 938 289 L 940 289 L 940 279 L 941 278 L 942 279 L 942 289 L 944 289 L 944 285 L 943 284 L 944 279 L 945 278 L 948 281 L 950 279 L 954 278 L 954 277 L 951 276 L 952 274 L 955 275 L 958 279 L 961 278 L 963 279 L 967 276 L 967 272 L 966 271 L 967 269 L 966 268 L 968 267 L 968 253 L 969 252 L 969 246 L 968 245 L 969 244 L 968 242 L 964 242 L 963 243 L 957 242 L 957 260 L 955 262 L 952 260 L 951 256 L 949 256 L 947 254 L 946 249 L 938 242 L 934 245 L 931 249 L 930 249 L 928 252 L 928 256 L 926 258 L 923 257 L 921 260 L 921 262 L 918 263 L 917 262 L 917 241 L 914 232 L 912 229 Z
    M 908 248 L 911 250 L 913 248 L 915 249 L 915 255 L 916 256 L 916 260 L 915 261 L 913 260 L 910 261 L 906 259 L 907 249 Z
    M 907 246 L 909 244 L 914 244 L 915 245 L 914 248 L 911 247 L 908 248 Z
    M 910 254 L 911 258 L 912 258 L 913 255 Z
    M 927 281 L 928 280 L 930 281 L 929 282 Z
    M 930 281 L 932 279 L 933 280 L 932 282 Z
    M 944 295 L 938 299 L 943 298 Z
    M 941 265 L 942 264 L 944 265 L 943 266 Z
    M 950 264 L 952 268 L 950 270 L 947 270 L 946 269 L 949 267 Z
    M 946 265 L 947 264 L 948 265 L 947 266 Z
    M 948 285 L 948 291 L 951 288 L 951 286 Z
    M 949 288 L 950 287 L 951 288 L 950 289 Z
    M 950 271 L 952 268 L 953 268 L 954 270 L 959 270 L 960 271 L 957 273 L 952 273 Z
    M 957 273 L 963 271 L 965 273 L 965 276 L 964 277 L 961 277 L 960 275 L 958 275 Z
    M 961 250 L 962 251 L 962 261 L 967 261 L 968 262 L 966 265 L 963 264 L 961 266 L 958 263 L 960 259 L 959 254 Z
    M 960 268 L 961 267 L 962 268 L 961 269 Z
    M 963 268 L 964 267 L 965 268 L 964 269 Z
    M 965 252 L 967 253 L 967 257 L 966 258 L 964 257 L 964 253 Z
    M 974 261 L 972 264 L 972 267 L 973 268 L 972 275 L 974 274 L 975 276 L 973 277 L 972 279 L 975 281 L 976 266 Z
    M 994 302 L 994 304 L 991 306 L 991 307 L 992 305 L 993 308 L 991 309 L 994 309 L 994 306 L 993 305 L 995 304 Z
    M 1035 100 L 1035 104 L 1033 106 L 1030 107 L 1030 112 L 1028 114 L 1028 119 L 1031 122 L 1031 134 L 1030 135 L 1030 150 L 1029 151 L 1029 165 L 1028 166 L 1028 179 L 1027 180 L 1028 181 L 1027 182 L 1027 191 L 1026 192 L 1026 196 L 1027 198 L 1026 199 L 1026 204 L 1025 205 L 1025 211 L 1024 212 L 1019 212 L 1018 215 L 1018 221 L 1020 223 L 1020 227 L 1018 232 L 1018 237 L 1014 246 L 1011 255 L 1011 258 L 1007 261 L 1005 260 L 1003 261 L 1002 276 L 998 283 L 998 285 L 995 289 L 995 291 L 993 292 L 995 291 L 995 289 L 997 286 L 1003 281 L 1005 282 L 1006 281 L 1012 281 L 1014 284 L 1017 282 L 1024 282 L 1025 284 L 1020 286 L 1019 288 L 1028 285 L 1033 285 L 1034 284 L 1040 284 L 1041 285 L 1045 285 L 1050 287 L 1054 287 L 1054 286 L 1049 285 L 1047 283 L 1048 282 L 1053 282 L 1055 281 L 1057 282 L 1059 285 L 1059 288 L 1055 290 L 1056 290 L 1057 292 L 1064 298 L 1064 295 L 1066 294 L 1064 290 L 1066 288 L 1067 288 L 1070 292 L 1071 292 L 1072 290 L 1073 292 L 1076 288 L 1078 289 L 1073 282 L 1072 277 L 1070 274 L 1070 270 L 1069 269 L 1062 269 L 1061 268 L 1062 267 L 1070 267 L 1071 266 L 1071 261 L 1070 260 L 1069 261 L 1068 260 L 1064 260 L 1062 258 L 1062 255 L 1060 252 L 1057 243 L 1057 240 L 1054 231 L 1054 227 L 1053 226 L 1053 224 L 1055 221 L 1055 219 L 1053 216 L 1054 213 L 1048 210 L 1047 199 L 1046 197 L 1045 199 L 1043 199 L 1042 197 L 1040 196 L 1042 191 L 1044 191 L 1046 194 L 1045 174 L 1044 173 L 1043 154 L 1042 153 L 1042 142 L 1041 141 L 1041 125 L 1040 124 L 1044 117 L 1044 113 L 1043 112 L 1043 107 L 1042 106 L 1039 106 L 1037 104 L 1037 100 Z
    M 996 306 L 996 309 L 1001 309 L 1002 308 L 1003 311 L 1004 310 L 1002 306 L 999 305 Z
    M 1000 286 L 1001 287 L 1000 289 L 1002 292 L 1001 290 L 1004 289 L 1002 288 L 1003 287 L 1002 286 Z
    M 1004 268 L 1006 266 L 1008 267 L 1019 267 L 1020 268 L 1019 269 L 1005 269 Z
    M 1006 298 L 1004 299 L 1005 301 L 1005 306 L 1006 303 L 1008 301 L 1008 299 Z
    M 1015 292 L 1014 290 L 1011 288 L 1011 290 L 1008 292 L 1007 294 L 1005 294 L 1008 295 L 1009 292 L 1011 294 Z
    M 1012 256 L 1015 255 L 1017 258 L 1015 260 L 1013 260 L 1012 259 Z
    M 1016 246 L 1019 247 L 1019 249 L 1017 252 L 1015 251 L 1015 247 Z
    M 1021 237 L 1023 239 L 1022 241 L 1019 242 L 1018 244 L 1017 243 L 1017 239 Z
    M 1018 251 L 1021 252 L 1022 251 L 1024 253 L 1024 256 L 1022 259 L 1020 259 L 1017 255 L 1017 252 Z
    M 1019 235 L 1020 232 L 1023 232 L 1024 233 L 1022 237 Z
    M 1020 250 L 1021 249 L 1022 251 L 1021 252 Z
    M 1023 241 L 1025 241 L 1027 244 L 1024 248 L 1021 245 L 1021 243 Z
    M 1021 268 L 1024 266 L 1025 267 L 1027 266 L 1028 267 L 1041 267 L 1044 269 L 1043 270 L 1025 270 Z
    M 1025 232 L 1027 234 L 1027 239 L 1025 241 L 1023 238 Z
    M 1031 236 L 1041 236 L 1043 238 L 1048 253 L 1048 259 L 1046 261 L 1045 260 L 1029 260 L 1027 261 L 1025 259 L 1025 253 L 1026 252 L 1026 248 L 1028 243 L 1028 239 Z
    M 1026 206 L 1028 205 L 1031 208 L 1031 210 L 1029 211 L 1026 208 Z
    M 1030 191 L 1032 193 L 1032 195 L 1029 197 L 1029 201 L 1028 202 L 1027 201 L 1027 196 L 1028 195 L 1028 192 Z
    M 1029 183 L 1031 184 L 1031 187 L 1030 188 L 1028 187 L 1028 184 Z
    M 1029 176 L 1031 175 L 1032 177 L 1030 178 Z
    M 1030 161 L 1031 160 L 1033 163 L 1031 164 Z
    M 1034 198 L 1035 199 L 1034 204 L 1031 205 L 1030 202 L 1032 201 Z
    M 1031 144 L 1032 143 L 1033 145 L 1032 146 Z
    M 1031 150 L 1033 149 L 1034 152 L 1032 153 Z
    M 1031 156 L 1034 155 L 1036 160 L 1034 161 L 1031 158 Z
    M 1031 172 L 1032 169 L 1035 171 L 1033 173 Z
    M 1031 272 L 1032 271 L 1033 272 L 1032 273 Z
    M 1034 178 L 1035 181 L 1033 182 L 1032 180 Z
    M 1033 187 L 1035 188 L 1035 191 L 1034 192 L 1032 191 L 1032 188 Z
    M 1032 273 L 1034 271 L 1038 271 L 1039 272 L 1036 275 L 1034 275 Z
    M 1039 272 L 1042 272 L 1043 271 L 1046 272 L 1048 275 L 1048 277 L 1048 275 L 1049 274 L 1050 275 L 1050 278 L 1047 281 L 1045 285 L 1043 285 L 1040 282 L 1038 282 L 1036 280 L 1034 281 L 1033 280 L 1034 278 L 1038 277 L 1039 274 L 1038 273 Z
    M 1034 218 L 1036 216 L 1038 217 L 1039 219 L 1038 220 L 1035 220 Z
    M 1037 151 L 1039 149 L 1041 150 L 1040 153 Z
    M 1037 158 L 1039 155 L 1041 156 L 1039 159 Z
    M 1038 168 L 1040 170 L 1039 173 L 1037 172 L 1037 169 Z
    M 1039 177 L 1041 181 L 1039 183 L 1037 181 L 1037 179 Z
    M 1038 144 L 1039 143 L 1041 145 L 1039 146 Z
    M 1038 161 L 1041 160 L 1042 163 L 1039 164 Z
    M 1043 182 L 1045 186 L 1043 188 L 1041 188 L 1041 191 L 1039 192 L 1038 191 L 1038 187 L 1040 186 L 1041 183 Z
    M 1039 196 L 1042 198 L 1043 201 L 1041 204 L 1038 203 L 1038 197 Z
    M 1044 202 L 1045 202 L 1047 205 L 1046 206 L 1047 210 L 1046 211 L 1043 210 L 1040 211 L 1039 208 L 1041 206 L 1042 207 L 1042 205 Z
    M 1041 173 L 1044 175 L 1042 178 L 1040 176 Z
    M 1044 220 L 1045 219 L 1047 220 L 1046 221 Z
    M 1046 236 L 1048 234 L 1051 238 L 1048 239 Z
    M 1047 240 L 1049 240 L 1050 243 L 1053 245 L 1053 248 L 1051 250 L 1047 247 L 1047 244 L 1046 243 Z
    M 1051 231 L 1054 233 L 1054 236 L 1052 237 L 1050 234 Z
    M 1050 239 L 1053 238 L 1056 241 L 1056 244 L 1053 245 Z
    M 1056 249 L 1059 251 L 1059 254 L 1061 258 L 1058 260 L 1056 259 L 1055 260 L 1051 258 L 1051 255 L 1052 254 L 1054 254 L 1056 257 L 1057 257 L 1057 255 L 1054 254 L 1054 251 Z
    M 1056 290 L 1057 289 L 1058 290 L 1057 291 Z
    M 1061 282 L 1062 281 L 1065 281 L 1066 284 L 1065 285 L 1062 285 Z
    M 1067 284 L 1071 281 L 1073 282 L 1075 285 L 1072 288 L 1070 288 Z
    M 1074 286 L 1075 285 L 1076 287 L 1075 288 Z
    M 1085 302 L 1085 305 L 1083 306 L 1088 307 L 1090 309 L 1090 311 L 1089 307 Z
    M 1170 158 L 1161 157 L 1160 156 L 1146 156 L 1145 157 L 1137 158 L 1133 161 L 1134 162 L 1133 180 L 1131 182 L 1132 184 L 1128 188 L 1130 204 L 1128 206 L 1128 210 L 1129 211 L 1129 223 L 1128 224 L 1128 227 L 1129 228 L 1129 239 L 1127 242 L 1129 245 L 1127 248 L 1127 250 L 1129 256 L 1129 263 L 1127 265 L 1127 267 L 1129 269 L 1129 274 L 1128 275 L 1128 279 L 1126 280 L 1126 305 L 1128 302 L 1133 302 L 1135 303 L 1136 301 L 1163 301 L 1162 299 L 1163 297 L 1153 297 L 1152 295 L 1149 296 L 1148 295 L 1150 292 L 1147 290 L 1149 289 L 1150 287 L 1153 287 L 1154 288 L 1151 289 L 1153 289 L 1154 292 L 1156 291 L 1158 292 L 1163 291 L 1165 293 L 1164 295 L 1160 295 L 1167 295 L 1168 294 L 1171 295 L 1176 295 L 1177 294 L 1178 295 L 1178 292 L 1180 290 L 1180 281 L 1176 279 L 1177 276 L 1177 269 L 1179 266 L 1179 263 L 1177 261 L 1177 249 L 1179 246 L 1179 244 L 1177 242 L 1177 233 L 1180 227 L 1177 223 L 1177 214 L 1180 208 L 1177 204 L 1177 195 L 1179 192 L 1179 187 L 1175 184 L 1175 181 L 1174 180 L 1174 169 L 1173 168 L 1174 160 Z
    M 1134 230 L 1135 231 L 1135 238 L 1133 240 L 1131 237 L 1131 235 L 1132 234 L 1132 231 Z
    M 1133 193 L 1135 194 L 1135 202 L 1134 203 L 1132 202 L 1132 194 Z
    M 1134 211 L 1135 212 L 1134 215 L 1135 218 L 1133 220 L 1132 219 L 1132 212 Z
    M 1132 251 L 1133 250 L 1134 251 L 1133 252 Z
    M 1133 252 L 1134 253 L 1134 258 L 1133 259 L 1132 258 L 1132 253 Z
    M 1134 267 L 1135 268 L 1135 276 L 1133 278 L 1132 277 L 1132 268 Z
    M 1136 289 L 1138 290 L 1137 292 L 1138 294 L 1137 295 L 1135 295 L 1133 293 Z
    M 1133 299 L 1134 298 L 1140 298 L 1141 299 L 1140 300 L 1134 300 Z
    M 1135 296 L 1136 295 L 1138 296 L 1137 297 Z
    M 1138 191 L 1140 192 L 1140 198 L 1141 199 L 1139 203 L 1136 201 L 1136 194 Z
    M 1138 209 L 1140 210 L 1140 220 L 1139 221 L 1136 219 L 1136 211 Z
    M 1137 228 L 1140 229 L 1140 239 L 1139 240 L 1136 239 L 1136 229 Z
    M 1137 249 L 1140 251 L 1140 258 L 1139 259 L 1136 258 L 1136 250 Z
    M 1138 266 L 1140 267 L 1141 270 L 1141 273 L 1139 278 L 1136 277 L 1136 268 Z
    M 1140 172 L 1141 173 L 1141 177 L 1139 179 L 1138 178 L 1138 174 Z
    M 1139 165 L 1141 164 L 1142 167 L 1140 168 Z
    M 1143 228 L 1146 229 L 1146 238 L 1144 240 L 1141 238 L 1141 230 Z
    M 1145 247 L 1146 248 L 1146 258 L 1143 260 L 1141 258 L 1141 248 L 1142 247 Z
    M 1143 266 L 1145 266 L 1147 269 L 1147 274 L 1145 278 L 1142 277 L 1142 274 L 1141 273 L 1141 270 Z
    M 1144 190 L 1146 191 L 1146 194 L 1147 195 L 1146 201 L 1145 202 L 1142 201 L 1142 192 Z
    M 1144 208 L 1146 210 L 1146 220 L 1145 221 L 1142 220 L 1142 210 Z
    M 1145 164 L 1146 165 L 1145 168 L 1143 166 Z
    M 1146 170 L 1149 172 L 1149 176 L 1147 178 L 1145 178 L 1143 175 L 1144 172 Z
    M 1143 299 L 1144 298 L 1147 299 L 1146 300 Z
    M 1145 289 L 1146 287 L 1148 288 L 1146 290 Z
    M 1148 164 L 1150 163 L 1152 166 L 1150 168 L 1148 166 Z
    M 1152 190 L 1153 191 L 1153 200 L 1150 202 L 1148 200 L 1148 191 L 1149 190 Z
    M 1150 209 L 1153 210 L 1153 220 L 1152 221 L 1150 221 L 1148 219 L 1148 212 Z
    M 1151 227 L 1153 229 L 1153 238 L 1150 240 L 1148 238 L 1148 229 Z
    M 1150 246 L 1153 248 L 1153 258 L 1152 259 L 1149 259 L 1148 258 L 1148 248 Z
    M 1150 266 L 1153 268 L 1153 277 L 1152 278 L 1150 278 L 1148 276 L 1148 268 Z
    M 1149 299 L 1150 298 L 1159 298 L 1160 299 L 1159 300 L 1150 300 Z
    M 1154 170 L 1155 170 L 1157 173 L 1156 174 L 1157 177 L 1156 178 L 1156 184 L 1155 185 L 1152 184 L 1153 181 L 1151 178 L 1152 177 L 1151 174 Z
    M 1152 222 L 1153 221 L 1154 222 L 1153 223 Z
    M 1157 246 L 1160 248 L 1160 258 L 1159 259 L 1156 259 L 1154 257 L 1154 250 Z
    M 1157 190 L 1160 191 L 1160 199 L 1158 201 L 1155 200 L 1155 193 Z
    M 1157 208 L 1160 210 L 1160 219 L 1158 221 L 1155 220 L 1155 212 Z
    M 1156 228 L 1159 228 L 1160 229 L 1160 238 L 1158 240 L 1155 238 L 1155 229 Z
    M 1157 266 L 1160 268 L 1160 277 L 1159 278 L 1156 278 L 1155 277 L 1155 268 Z
    M 1157 163 L 1160 164 L 1158 168 L 1156 167 L 1156 164 Z
    M 1160 171 L 1162 171 L 1164 173 L 1164 176 L 1162 179 L 1159 177 L 1159 172 Z
    M 1163 246 L 1166 247 L 1167 251 L 1167 247 L 1168 246 L 1172 249 L 1172 258 L 1170 260 L 1167 259 L 1166 256 L 1167 255 L 1166 253 L 1166 258 L 1164 260 L 1160 257 L 1161 255 L 1160 254 L 1160 250 Z
    M 1168 165 L 1166 168 L 1162 168 L 1161 167 L 1162 165 L 1164 166 L 1166 164 Z
    M 1164 190 L 1166 192 L 1166 200 L 1165 201 L 1163 201 L 1161 199 L 1161 194 Z
    M 1163 208 L 1166 210 L 1166 220 L 1165 221 L 1163 221 L 1161 219 L 1161 211 Z
    M 1163 228 L 1166 229 L 1166 239 L 1165 240 L 1163 240 L 1161 238 L 1161 230 Z
    M 1163 266 L 1166 267 L 1166 277 L 1164 279 L 1161 277 L 1161 268 Z
    M 1167 172 L 1170 173 L 1170 179 L 1169 180 L 1166 178 L 1166 173 Z
    M 1169 191 L 1171 192 L 1171 201 L 1170 202 L 1167 201 L 1167 193 Z
    M 1168 209 L 1170 209 L 1172 212 L 1171 214 L 1172 215 L 1171 216 L 1171 221 L 1170 222 L 1167 220 L 1167 210 Z
    M 1169 228 L 1171 230 L 1171 240 L 1170 241 L 1167 239 L 1167 230 Z
    M 1169 266 L 1172 268 L 1172 271 L 1171 272 L 1172 277 L 1170 279 L 1167 277 L 1167 268 Z
    M 1168 167 L 1169 166 L 1172 167 L 1170 169 Z
    M 1174 193 L 1175 194 L 1175 202 L 1174 203 L 1172 199 L 1172 195 Z
    M 1174 211 L 1176 214 L 1176 218 L 1174 221 L 1172 219 L 1172 213 Z
    M 1174 248 L 1176 249 L 1176 258 L 1175 259 L 1172 257 L 1172 250 Z
    M 1174 230 L 1176 232 L 1175 239 L 1174 240 L 1173 239 L 1173 231 Z
    M 1175 268 L 1176 269 L 1176 276 L 1174 278 L 1173 277 L 1173 269 Z
    M 1521 281 L 1510 279 L 1512 256 L 1501 256 L 1503 252 L 1496 244 L 1494 229 L 1503 208 L 1501 206 L 1480 207 L 1458 214 L 1475 247 L 1456 219 L 1446 253 L 1460 194 L 1433 195 L 1415 203 L 1415 162 L 1410 158 L 1393 162 L 1370 177 L 1350 199 L 1336 227 L 1311 217 L 1288 215 L 1301 249 L 1289 229 L 1276 223 L 1268 224 L 1287 263 L 1298 262 L 1300 265 L 1296 272 L 1305 271 L 1315 262 L 1330 266 L 1336 272 L 1345 263 L 1366 257 L 1390 269 L 1406 194 L 1412 204 L 1400 237 L 1395 268 L 1423 253 L 1438 256 L 1444 263 L 1454 253 L 1476 249 L 1479 254 L 1476 258 L 1445 268 L 1389 276 L 1298 279 L 1292 272 L 1282 271 L 1282 261 L 1269 270 L 1250 270 L 1224 261 L 1214 247 L 1213 263 L 1215 259 L 1226 279 L 1265 279 L 1256 282 L 1264 282 L 1263 285 L 1220 281 L 1220 289 L 1230 284 L 1225 289 L 1231 293 L 1228 297 L 1219 295 L 1215 301 L 1233 301 L 1233 298 L 1240 298 L 1244 294 L 1249 295 L 1243 297 L 1243 301 L 1251 301 L 1248 298 L 1272 298 L 1271 295 L 1261 297 L 1253 293 L 1276 292 L 1274 295 L 1285 295 L 1283 298 L 1275 297 L 1276 301 L 1291 295 L 1288 300 L 1282 301 L 1297 298 L 1305 302 L 1294 304 L 1306 307 L 1304 303 L 1309 299 L 1331 298 L 1318 297 L 1319 294 L 1341 298 L 1343 294 L 1389 292 L 1389 297 L 1395 298 L 1392 292 L 1413 294 L 1409 291 L 1411 289 L 1417 293 L 1422 289 L 1430 291 L 1421 292 L 1461 289 L 1460 292 L 1481 292 L 1488 296 L 1480 298 L 1500 298 L 1496 295 L 1514 292 L 1504 292 L 1503 289 L 1520 289 Z
    M 1219 304 L 1223 305 L 1226 303 L 1220 303 Z
    M 1227 290 L 1229 289 L 1231 291 L 1228 292 Z
    M 1229 288 L 1230 287 L 1232 288 L 1231 289 Z
    M 1230 284 L 1231 283 L 1238 282 L 1240 284 L 1243 284 L 1244 286 L 1243 287 L 1240 287 L 1238 289 L 1234 289 L 1233 288 L 1234 285 L 1233 286 Z
    M 1230 303 L 1230 304 L 1234 304 L 1235 305 L 1241 305 L 1241 304 L 1238 303 L 1236 304 L 1234 303 Z
    M 1235 300 L 1235 301 L 1240 301 L 1240 300 Z
    M 1248 305 L 1250 304 L 1251 305 L 1254 304 L 1254 303 L 1249 303 Z
    M 1254 288 L 1255 287 L 1256 288 L 1255 289 Z
    M 1255 290 L 1256 289 L 1258 291 L 1256 292 Z
    M 1255 306 L 1255 308 L 1261 308 L 1261 307 L 1257 307 Z
    M 1270 271 L 1271 274 L 1269 276 L 1269 278 L 1268 279 L 1265 279 L 1264 277 L 1266 274 Z
    M 1266 305 L 1271 304 L 1273 301 L 1272 300 L 1269 301 L 1267 300 L 1266 301 L 1268 302 Z
    M 1268 302 L 1269 301 L 1271 302 L 1270 303 Z
    M 1274 272 L 1275 271 L 1276 272 L 1275 273 Z
    M 1277 271 L 1278 270 L 1279 271 L 1278 272 Z
    M 1280 268 L 1281 267 L 1282 268 L 1281 269 Z
    M 1282 303 L 1288 305 L 1289 304 L 1292 304 L 1292 303 Z
    M 1286 290 L 1289 289 L 1291 291 L 1290 292 L 1287 292 Z
    M 1286 293 L 1287 292 L 1298 292 L 1299 294 L 1298 295 L 1287 295 Z
    M 1296 290 L 1299 289 L 1300 291 L 1297 292 Z
    M 1297 296 L 1301 291 L 1304 291 L 1305 292 L 1302 293 L 1302 294 L 1309 294 L 1310 296 L 1308 297 L 1310 298 L 1308 300 L 1299 300 L 1297 298 Z
    M 1302 248 L 1303 249 L 1302 252 L 1301 251 Z
    M 1312 294 L 1313 293 L 1314 294 L 1313 295 Z
    M 1328 293 L 1329 292 L 1332 292 L 1333 294 L 1330 295 Z
    M 1335 228 L 1336 229 L 1336 236 L 1335 237 L 1335 244 L 1333 249 L 1332 248 L 1332 238 L 1333 237 L 1334 229 Z
    M 1332 295 L 1333 294 L 1339 294 L 1340 295 L 1339 296 L 1333 296 Z
    M 1340 293 L 1342 292 L 1343 294 L 1341 295 Z
    M 1357 290 L 1359 289 L 1360 291 L 1358 292 Z
    M 1374 295 L 1374 299 L 1373 301 L 1384 301 L 1385 298 L 1384 297 L 1379 297 L 1378 299 Z
    M 1374 299 L 1375 298 L 1376 299 L 1375 300 Z
    M 1375 291 L 1378 289 L 1380 289 L 1383 291 L 1382 292 L 1376 292 Z
    M 1378 299 L 1379 298 L 1380 299 L 1379 300 Z
    M 1415 203 L 1418 207 L 1418 209 L 1423 218 L 1423 220 L 1430 234 L 1430 236 L 1433 240 L 1433 242 L 1437 249 L 1436 252 L 1434 250 L 1433 246 L 1430 242 L 1416 214 L 1416 212 L 1413 207 L 1413 204 Z
    M 1436 252 L 1437 251 L 1438 253 L 1437 254 Z
    M 1445 254 L 1446 253 L 1447 254 L 1446 255 Z
    M 1448 288 L 1449 287 L 1450 288 L 1449 289 Z
    M 1450 298 L 1451 296 L 1454 297 L 1455 295 L 1450 295 L 1451 296 Z
    M 1458 302 L 1464 304 L 1464 303 L 1462 302 Z
    M 1465 283 L 1468 282 L 1471 285 L 1470 286 L 1466 286 Z
    M 1466 297 L 1468 296 L 1471 297 L 1473 295 L 1479 295 L 1465 295 Z
    M 1469 290 L 1472 289 L 1474 291 L 1473 292 L 1470 292 Z
    M 1483 293 L 1489 291 L 1492 292 L 1494 295 L 1493 296 L 1492 295 L 1489 295 L 1488 296 L 1485 295 Z
    M 1493 234 L 1494 235 L 1494 239 L 1491 247 L 1491 251 L 1488 253 L 1487 252 L 1488 244 Z
    M 1489 290 L 1492 289 L 1495 291 L 1494 292 L 1490 292 Z
    M 1490 296 L 1491 295 L 1492 296 L 1491 297 Z
    M 1520 301 L 1518 298 L 1517 299 L 1511 299 L 1510 300 L 1502 299 L 1503 301 L 1515 301 L 1517 299 L 1518 301 Z
    M 1571 148 L 1556 155 L 1554 157 L 1554 166 L 1555 167 L 1555 194 L 1554 195 L 1555 196 L 1555 207 L 1554 208 L 1554 215 L 1555 216 L 1555 219 L 1554 220 L 1555 222 L 1555 246 L 1554 247 L 1554 251 L 1555 252 L 1555 279 L 1556 280 L 1557 279 L 1564 278 L 1565 279 L 1562 281 L 1563 282 L 1562 283 L 1563 285 L 1562 286 L 1563 287 L 1565 284 L 1566 285 L 1574 285 L 1576 288 L 1574 289 L 1589 289 L 1592 292 L 1595 293 L 1591 296 L 1589 293 L 1586 293 L 1585 292 L 1578 292 L 1579 293 L 1578 296 L 1576 295 L 1572 295 L 1580 304 L 1581 304 L 1580 302 L 1581 300 L 1576 300 L 1575 299 L 1576 298 L 1580 298 L 1581 297 L 1580 296 L 1582 295 L 1585 298 L 1592 298 L 1593 299 L 1592 300 L 1585 300 L 1585 301 L 1592 301 L 1595 299 L 1594 298 L 1594 295 L 1597 294 L 1597 293 L 1594 292 L 1595 291 L 1601 291 L 1601 290 L 1599 290 L 1597 288 L 1598 287 L 1602 287 L 1603 290 L 1605 291 L 1605 288 L 1608 285 L 1610 288 L 1609 289 L 1610 290 L 1610 294 L 1609 295 L 1610 297 L 1610 302 L 1610 298 L 1611 297 L 1611 294 L 1610 293 L 1610 288 L 1611 287 L 1611 277 L 1610 276 L 1611 275 L 1611 263 L 1610 262 L 1610 255 L 1607 255 L 1605 252 L 1605 243 L 1606 242 L 1606 155 L 1603 154 L 1596 149 L 1589 149 L 1588 148 L 1580 148 L 1578 149 L 1577 148 Z
    M 1563 282 L 1565 279 L 1567 281 L 1565 283 Z
    M 1565 283 L 1566 282 L 1567 283 L 1566 284 Z
    M 1566 284 L 1567 283 L 1568 284 L 1567 285 Z
    M 1570 283 L 1571 282 L 1572 283 L 1571 284 Z
    M 1593 291 L 1594 290 L 1595 291 L 1594 292 Z
    M 1605 299 L 1602 300 L 1602 301 L 1605 302 Z
    M 1607 275 L 1608 274 L 1609 276 L 1608 277 Z
    M 1607 282 L 1608 281 L 1609 282 L 1608 283 Z
    M 1638 145 L 1638 153 L 1636 156 L 1633 170 L 1631 172 L 1631 176 L 1629 178 L 1628 193 L 1627 196 L 1625 198 L 1625 218 L 1623 221 L 1623 235 L 1624 236 L 1623 240 L 1624 241 L 1624 244 L 1622 249 L 1622 256 L 1620 258 L 1617 256 L 1617 271 L 1618 272 L 1617 289 L 1618 292 L 1618 285 L 1619 284 L 1621 287 L 1626 287 L 1627 288 L 1626 291 L 1628 289 L 1628 286 L 1626 284 L 1627 282 L 1633 282 L 1634 283 L 1633 285 L 1634 286 L 1632 287 L 1632 288 L 1634 287 L 1643 287 L 1644 286 L 1641 285 L 1640 283 L 1638 282 L 1638 280 L 1639 279 L 1640 281 L 1644 282 L 1645 281 L 1649 281 L 1651 279 L 1653 281 L 1656 282 L 1653 286 L 1652 283 L 1649 289 L 1647 287 L 1645 289 L 1636 290 L 1636 291 L 1649 291 L 1650 292 L 1653 291 L 1656 294 L 1657 292 L 1657 286 L 1656 285 L 1657 284 L 1656 282 L 1657 280 L 1657 258 L 1656 255 L 1652 253 L 1652 246 L 1651 245 L 1652 242 L 1652 238 L 1651 237 L 1652 236 L 1652 232 L 1651 231 L 1651 218 L 1650 217 L 1650 201 L 1649 200 L 1649 195 L 1648 194 L 1648 186 L 1646 183 L 1646 178 L 1645 177 L 1644 170 L 1642 167 L 1641 159 L 1638 153 Z
    M 1621 281 L 1623 279 L 1624 280 L 1623 282 Z
    M 1625 268 L 1626 267 L 1629 268 L 1628 269 Z
    M 1627 276 L 1628 275 L 1630 276 L 1629 277 Z
    M 1641 280 L 1643 279 L 1644 281 L 1642 282 Z
    M 1645 289 L 1646 288 L 1649 289 L 1648 290 Z
    M 1648 256 L 1649 255 L 1650 257 L 1649 258 Z
    M 1724 39 L 1723 63 L 1720 77 L 1717 80 L 1714 115 L 1712 117 L 1711 148 L 1709 150 L 1709 197 L 1704 194 L 1693 195 L 1689 193 L 1689 149 L 1687 147 L 1687 121 L 1685 119 L 1685 102 L 1682 92 L 1682 83 L 1677 67 L 1671 86 L 1666 120 L 1664 122 L 1664 143 L 1662 149 L 1662 295 L 1672 288 L 1678 289 L 1680 287 L 1684 287 L 1685 285 L 1682 283 L 1689 282 L 1690 280 L 1691 285 L 1689 276 L 1689 204 L 1691 202 L 1696 203 L 1699 207 L 1697 226 L 1697 223 L 1700 220 L 1703 227 L 1701 207 L 1705 202 L 1709 202 L 1712 205 L 1712 271 L 1713 268 L 1716 272 L 1725 276 L 1713 277 L 1710 279 L 1717 279 L 1719 281 L 1716 282 L 1719 282 L 1720 284 L 1718 285 L 1725 282 L 1729 284 L 1734 280 L 1731 282 L 1723 282 L 1719 280 L 1719 278 L 1737 278 L 1737 250 L 1733 248 L 1736 247 L 1735 240 L 1737 236 L 1736 200 L 1739 185 L 1739 149 L 1737 147 L 1736 118 L 1734 116 L 1733 102 L 1731 100 L 1730 79 L 1728 77 L 1725 62 Z
    M 1669 285 L 1670 284 L 1671 285 L 1670 286 Z
    M 1671 283 L 1672 282 L 1673 284 L 1672 285 Z
    M 1677 288 L 1678 287 L 1679 288 L 1678 289 Z
    M 1681 272 L 1682 271 L 1683 272 L 1682 273 Z
    M 1681 280 L 1683 279 L 1684 281 L 1682 282 Z
    M 1683 272 L 1684 271 L 1687 271 L 1689 273 L 1687 276 L 1685 273 Z
    M 1712 265 L 1713 264 L 1714 265 L 1713 266 Z
    M 1729 244 L 1730 243 L 1731 245 L 1730 246 Z
    M 1729 272 L 1730 271 L 1731 272 L 1730 273 Z
  "/>
</svg>
